<svg width="45" height="45" viewBox="0 0 45 45" fill="none" xmlns="http://www.w3.org/2000/svg">
<g id="5418936">
<path id="Vector" d="M26.6314 27.6304C28.0658 29.0806 29.5494 30.3039 30.8098 31.0737C32.2264 31.9392 32.7698 31.8656 32.8374 31.7984C32.905 31.7311 32.9851 31.189 32.1356 29.7628C31.3797 28.4942 30.1738 26.9966 28.7393 25.5461C27.3048 24.0955 25.8213 22.8726 24.5609 22.1027C23.5319 21.4739 22.9637 21.3409 22.7038 21.3409C22.6445 21.3341 22.5845 21.3471 22.5333 21.378C22.4654 21.4452 22.3856 21.9874 23.2352 23.4137C23.9909 24.6823 25.197 26.1799 26.6314 27.6304Z" fill="#6554C0"/>
<path id="Vector_2" d="M29.3642 24.928C30.8472 26.4277 32.0995 27.985 32.8905 29.3129C33.2751 29.9584 33.5307 30.5166 33.6572 30.9875L40.9785 23.7475C42.3552 22.38 43.1333 20.5223 43.142 18.5819C43.1507 16.6414 42.3894 14.7768 41.025 13.397C39.6606 12.0172 37.8046 11.2349 35.8642 11.2218C33.9238 11.2088 32.0574 11.9659 30.6746 13.3272L23.3533 20.5672C23.8228 20.7 24.3781 20.9619 25.0191 21.3527C26.3381 22.1586 27.8813 23.4283 29.3642 24.928ZM32.3102 14.1503L32.6386 13.8163C32.7204 13.7333 32.8318 13.6861 32.9484 13.6852C33.0649 13.6843 33.1771 13.7297 33.2601 13.8115C33.3432 13.8933 33.3903 14.0047 33.3913 14.1212C33.3922 14.2378 33.3467 14.3499 33.265 14.433L32.9365 14.7669C32.896 14.8081 32.8478 14.8408 32.7947 14.8633C32.7415 14.8858 32.6845 14.8976 32.6268 14.8981C32.5691 14.8985 32.5118 14.8876 32.4583 14.8659C32.4049 14.8443 32.3562 14.8123 32.315 14.7718C32.2739 14.7313 32.2412 14.6831 32.2187 14.63C32.1962 14.5768 32.1844 14.5198 32.1839 14.462C32.1835 14.4043 32.1944 14.3471 32.2161 14.2936C32.2377 14.2401 32.2697 14.1914 32.3102 14.1503ZM28.085 18.375L31.1025 15.3587C31.185 15.2769 31.2966 15.2311 31.4129 15.2314C31.5291 15.2317 31.6404 15.278 31.7226 15.3602C31.8048 15.4424 31.851 15.5537 31.8513 15.67C31.8515 15.7862 31.8057 15.8978 31.7239 15.9803L28.7063 18.9967C28.6656 19.0378 28.6171 19.0704 28.5637 19.0927C28.5103 19.115 28.453 19.1266 28.3952 19.1267C28.3373 19.1268 28.28 19.1155 28.2265 19.0934C28.173 19.0713 28.1244 19.0388 28.0835 18.9979C28.0426 18.9569 28.0102 18.9083 27.9881 18.8548C27.966 18.8013 27.9547 18.744 27.9549 18.6861C27.955 18.6283 27.9666 18.571 27.9889 18.5176C28.0113 18.4642 28.0439 18.4158 28.085 18.375Z" fill="#6554C0"/>
<path id="Vector_3" d="M11.2028 22.1724C11.3357 21.7029 11.5975 21.1475 11.9882 20.5064C12.7942 19.1874 14.0639 17.6443 15.5636 16.1613C17.0786 14.6633 19.8025 12.3607 21.6222 11.8673L14.3831 4.5466C13.0167 3.16478 11.1574 2.38236 9.21409 2.37145C7.27081 2.36055 5.40278 3.12206 4.02096 4.48846C2.63915 5.85486 1.85672 7.71422 1.84582 9.65751C1.83492 11.6008 2.59643 13.4688 3.96282 14.8506L11.2028 22.1724ZM5.36943 13.4209C5.45184 13.3385 5.56361 13.2922 5.68016 13.2922C5.79671 13.2922 5.90849 13.3385 5.9909 13.4209L9.00722 16.4384C9.04831 16.4791 9.08095 16.5276 9.10327 16.581C9.12558 16.6344 9.13713 16.6917 9.13725 16.7495C9.13737 16.8074 9.12605 16.8647 9.10396 16.9182C9.08186 16.9717 9.04942 17.0203 9.00849 17.0612C8.96757 17.1021 8.91896 17.1346 8.86547 17.1566C8.81197 17.1787 8.75464 17.19 8.69677 17.1899C8.6389 17.1897 8.58163 17.1782 8.52824 17.1559C8.47485 17.1335 8.42639 17.1009 8.38566 17.0598L5.36925 14.0427C5.3284 14.0019 5.296 13.9534 5.2739 13.9001C5.2518 13.8467 5.24044 13.7895 5.24045 13.7318C5.24047 13.674 5.25187 13.6169 5.274 13.5635C5.29613 13.5102 5.32856 13.4617 5.36943 13.4209ZM3.82255 11.8848C3.86304 11.8436 3.91123 11.8109 3.96438 11.7884C4.01752 11.7659 4.07458 11.7541 4.13229 11.7536C4.19 11.7532 4.24723 11.7641 4.30072 11.7858C4.35421 11.8074 4.4029 11.8394 4.44403 11.8799L4.77801 12.2084C4.8198 12.2487 4.85318 12.2969 4.87623 12.3502C4.89927 12.4035 4.91152 12.4609 4.91227 12.519C4.91301 12.577 4.90224 12.6347 4.88057 12.6886C4.8589 12.7424 4.82676 12.7915 4.78602 12.8329C4.74528 12.8743 4.69673 12.9072 4.6432 12.9297C4.58966 12.9522 4.53219 12.9639 4.47411 12.9641C4.41604 12.9642 4.3585 12.9529 4.30484 12.9307C4.25117 12.9085 4.20244 12.8758 4.16146 12.8347L3.82747 12.5062C3.7445 12.4245 3.69737 12.3132 3.69643 12.1967C3.69549 12.0803 3.74082 11.9682 3.82246 11.8851L3.82255 11.8848Z" fill="#6554C0"/>
<path id="Vector_4" d="M16.1815 16.7861C14.7313 18.2206 13.508 19.7041 12.7382 20.9645C11.8727 22.3812 11.9464 22.9245 12.0135 22.9921C12.0807 23.0597 12.6228 23.14 14.0492 22.2903C15.3178 21.5344 16.8153 20.3285 18.2659 18.8941C19.7165 17.4597 20.9394 15.9761 21.7092 14.7156C22.5747 13.2991 22.501 12.7556 22.4339 12.6881C22.3803 12.6554 22.3173 12.6416 22.255 12.6489C21.9913 12.6489 21.423 12.7795 20.3982 13.3899C19.1296 14.1456 17.6321 15.3518 16.1815 16.7861Z" fill="#6554C0"/>
<path id="Vector_5" d="M14.7217 29.178C15.1343 29.178 15.4688 28.8435 15.4688 28.4309C15.4688 28.0183 15.1343 27.6838 14.7217 27.6838C14.3091 27.6838 13.9746 28.0183 13.9746 28.4309C13.9746 28.8435 14.3091 29.178 14.7217 29.178Z" fill="#6554C0"/>
<path id="Vector_6" d="M19.4238 34.0999C20.0549 34.0999 20.5664 33.5883 20.5664 32.9573C20.5664 32.3262 20.0549 31.8147 19.4238 31.8147C18.7928 31.8147 18.2812 32.3262 18.2812 32.9573C18.2812 33.5883 18.7928 34.0999 19.4238 34.0999Z" fill="#6554C0"/>
<path id="Vector_7" d="M13.9307 39.637C14.2462 39.637 14.502 39.3812 14.502 39.0657C14.502 38.7502 14.2462 38.4944 13.9307 38.4944C13.6151 38.4944 13.3594 38.7502 13.3594 39.0657C13.3594 39.3812 13.6151 39.637 13.9307 39.637Z" fill="#6554C0"/>
<path id="Vector_8" d="M22.3242 42.6252C22.9067 42.6252 23.3789 42.153 23.3789 41.5706C23.3789 40.9881 22.9067 40.5159 22.3242 40.5159C21.7417 40.5159 21.2695 40.9881 21.2695 41.5706C21.2695 42.153 21.7417 42.6252 22.3242 42.6252Z" fill="#6554C0"/>
<path id="Vector_9" d="M25.0049 37.3518C25.5631 37.3518 26.0156 36.8993 26.0156 36.3411C26.0156 35.7828 25.5631 35.3303 25.0049 35.3303C24.4467 35.3303 23.9941 35.7828 23.9941 36.3411C23.9941 36.8993 24.4467 37.3518 25.0049 37.3518Z" fill="#6554C0"/>
<path id="Vector_10" d="M19.3799 26.1018C19.7925 26.1018 20.127 25.7673 20.127 25.3547C20.127 24.9421 19.7925 24.6077 19.3799 24.6077C18.9673 24.6077 18.6328 24.9421 18.6328 25.3547C18.6328 25.7673 18.9673 26.1018 19.3799 26.1018Z" fill="#6554C0"/>
</g>
</svg>
