<svg width="16" height="16" viewBox="0 0 16 16" fill="none" xmlns="http://www.w3.org/2000/svg">
<g id="709722" clip-path="url(#clip0_91_23)">
<g id="Group">
<g id="Group_2">
<path id="Vector" d="M8.00113 0C5.7154 0 3.84692 1.86847 3.84692 4.1542C3.84692 6.43993 5.7154 8.3084 8.00113 8.3084C10.2869 8.3084 12.1553 6.43993 12.1553 4.1542C12.1553 1.86847 10.2869 0 8.00113 0Z" fill="white"/>
</g>
</g>
<g id="Group_3">
<g id="Group_4">
<path id="Vector_2" d="M15.1304 11.628C15.0216 11.3559 14.8765 11.1019 14.7132 10.8661C13.8787 9.63253 12.5908 8.81621 11.1395 8.61667C10.9581 8.59854 10.7586 8.63479 10.6135 8.74364C9.85155 9.30601 8.94454 9.59625 8.0012 9.59625C7.05787 9.59625 6.15086 9.30601 5.38895 8.74364C5.24381 8.63479 5.04426 8.58038 4.86287 8.61667C3.41162 8.81621 2.10551 9.63253 1.28919 10.8661C1.12593 11.1019 0.980788 11.3741 0.871968 11.628C0.817558 11.7369 0.835683 11.8639 0.890093 11.9727C1.03523 12.2267 1.21662 12.4807 1.37988 12.6983C1.63384 13.043 1.90596 13.3514 2.21436 13.6416C2.46832 13.8956 2.75857 14.1314 3.04884 14.3673C4.48193 15.4376 6.2053 15.9999 7.98308 15.9999C9.76086 15.9999 11.4842 15.4375 12.9173 14.3673C13.2076 14.1496 13.4978 13.8956 13.7518 13.6416C14.042 13.3514 14.3323 13.043 14.5863 12.6983C14.7677 12.4625 14.931 12.2267 15.0761 11.9727C15.1667 11.8639 15.1849 11.7368 15.1304 11.628Z" fill="white"/>
</g>
</g>
</g>
<defs>
<clipPath id="clip0_91_23">
<rect width="16" height="16" fill="white"/>
</clipPath>
</defs>
</svg>
